<svg xmlns="http://www.w3.org/2000/svg" viewBox="0 0 48 48"><symbol id="New_Symbol_14" viewBox="-6.5 -6.5 13 13"><path fill="#ffd4c3" stroke="#504b46" stroke-linecap="round" stroke-linejoin="round" stroke-miterlimit="10" d="M0-6c2.2 0 4.1 1.5 4.7 3.5C6.3-2.5 6.4 0 5 0v1c0 2.8-2.2 5-5 5s-5-2.2-5-5V0c-1.4 0-1.3-2.5.2-2.5C-4.1-4.5-2.2-6 0-6z"/><circle cx="-1.6" cy="-.1" r=".1" fill="#ffc258"/><path fill="#4f4b45" d="M-1.6.5c-.3 0-.6-.3-.6-.6s.2-.7.6-.7c.3 0 .6.3.6.7s-.3.6-.6.6z"/><circle cx="1.6" cy="-.1" r=".1" fill="#ffc258"/><path fill="#4f4b45" d="M1.6.5C1.3.5 1 .2 1-.1s.3-.6.6-.6.6.3.6.6-.2.6-.6.6z"/><circle cx="-3" cy="-1.5" r=".5" fill="#fabfa5"/><circle cx="3" cy="-1.5" r=".5" fill="#fabfa5"/><path fill="none" stroke="#504b46" stroke-linecap="round" stroke-linejoin="round" stroke-miterlimit="10" d="M-1.2-3c.8-.5 1.7-.5 2.5 0"/></symbol><g id="Icons"><g id="XMLID_645_"><circle id="XMLID_7293_" cx="24" cy="21.2" r="20" fill="#ffe500"/><path id="XMLID_7290_" fill="#ebcb00" d="M24 1.2c-11 0-20 9-20 20s9 20 20 20 20-9 20-20-9-20-20-20zm0 37C13.9 38.2 5.7 30.1 5.7 20S13.9 1.8 24 1.8 42.2 9.9 42.2 20 34.1 38.2 24 38.2z"/><ellipse id="XMLID_7289_" cx="24" cy="5.2" fill="#fff48c" rx="6" ry="1.5"/><ellipse id="XMLID_7288_" cx="24" cy="45.2" fill="#45413c" opacity=".15" rx="16" ry="1.5"/><circle id="XMLID_7287_" cx="24" cy="21.2" r="20" fill="none" stroke="#45413c" stroke-linecap="round" stroke-linejoin="round" stroke-miterlimit="10"/><path id="XMLID_7286_" fill="none" stroke="#45413c" stroke-linecap="round" stroke-miterlimit="10" d="M19 13.3c1.4-1 3.2-1.5 5-1.5 1.8 0 3.6.6 5 1.5"/><circle id="XMLID_7285_" cx="34.5" cy="22.3" r="1" fill="#45413c" stroke="#45413c" stroke-linecap="round" stroke-linejoin="round" stroke-miterlimit="10"/><circle id="XMLID_7284_" cx="13.5" cy="22.3" r="1" fill="#45413c" stroke="#45413c" stroke-linecap="round" stroke-linejoin="round" stroke-miterlimit="10"/><ellipse id="XMLID_7283_" cx="12" cy="16.2" fill="#ffaa54" rx="2.5" ry="1.5"/><ellipse id="XMLID_7282_" cx="36" cy="16.2" fill="#ffaa54" rx="2.5" ry="1.5"/></g></g></svg>